<svg version="1.1" xmlns="http://www.w3.org/2000/svg" xmlns:xlink="http://www.w3.org/1999/xlink" width="274.71462" height="274.71462" viewBox="0,0,274.71462,274.71462"><g transform="translate(-102.64269,-42.64269)"><g data-paper-data="{&quot;isPaintingLayer&quot;:true}" fill-rule="nonzero" stroke="none" stroke-linecap="butt" stroke-linejoin="miter" stroke-miterlimit="10" stroke-dasharray="" stroke-dashoffset="0" style="mix-blend-mode: normal"><path d="M102.64269,180c0,-75.86035 61.49696,-137.35731 137.35731,-137.35731c75.86035,0 137.35731,61.49696 137.35731,137.35731c0,75.86035 -61.49696,137.35731 -137.35731,137.35731c-75.86035,0 -137.35731,-61.49696 -137.35731,-137.35731z" fill="#161528" stroke-width="0"/><path d="M163.64983,269.65908c3.45833,-21.22052 17.02867,-92.03117 25.36216,-123.05825c4.90422,-18.25929 9.88292,-32.80052 9.99159,-33.53413c0.29334,-1.98019 12.48367,-42.72403 12.48367,-42.72403c0,0 -7.26426,37.45217 -4.01468,54.94365c0.46562,4.58164 13.15246,3.81691 13.72182,3.81691c1.74935,0 25.90903,-0.35865 26.43435,-0.04742c0.21898,0.12974 1.02489,0.97887 1.19063,2.15129c0.16603,1.17455 -0.18224,2.67309 -0.3803,3.59137c-1.53286,7.10682 -7.38829,8.70753 -10.97814,8.70753c-1.62458,0 -23.30569,-0.31858 -28.64291,2.44696c-2.19585,1.1378 -5.60935,3.95212 -7.5601,8.42182c-1.70657,3.9102 -1.84291,7.40583 -3.59414,13.71581c-1.87968,6.7728 -15.96979,81.98637 -15.96979,81.98637c0,0 -2.47651,11.62743 -0.56081,19.06074c0.8177,3.17287 12.47662,3.05977 22.44339,3.94315c8.00695,0.70968 14.9218,1.80894 14.24617,7.68948c-0.60167,5.23681 -0.70355,7.75986 -6.22764,8.49837c-7.99427,1.06874 -22.22785,-1.22086 -22.95722,-1.26053c-1.99756,-0.10865 -12.64561,-1.04749 -18.51271,-5.26752c-5.74164,-4.12979 -6.72877,-11.52648 -6.47533,-13.08156z" fill="#a780c1" stroke-width="0.5"/><path d="M295.04569,154.09442c0.54517,-4.39272 -0.88674,-7.79799 -3.13703,-8.82392c-2.3617,-1.07672 -8.84353,-0.67773 -10.70937,-0.67773c-3.58985,0 -19.27873,2.42853 -20.87156,-0.4659c-1.11516,-2.02642 -0.96063,-4.85289 0.51077,-8.32262c0.73421,-1.73136 2.51445,-3.12302 3.43863,-3.64258c0.6926,-0.38938 17.18138,0.78363 27.90713,-2.77777c5.29917,-1.75955 14.16726,-14.7621 14.43556,-17.40216c4.24019,-17.49148 9.7661,-42.35144 9.7661,-42.35144c0,0 -4.09797,44.35353 -3.80463,46.33372c0.10868,0.73361 -5.60669,38.81742 -5.60669,38.81742c0,0 -6.168,30.2095 -11.66357,58.14884c-4.70871,23.93901 -8.85006,46.17455 -9.02436,46.72757c-2.14256,6.79775 -5.80065,13.69485 -7.0252,15.36852c-1.90645,2.60566 -5.77761,8.31876 -12.55934,11.89961c-5.74843,3.03526 -14.31181,4.17664 -17.99306,4.36969c-6.53411,0.34266 -19.18734,-0.40751 -20.5744,-3.39866c-2.37483,-5.12127 0.11936,-9.2098 0.91712,-10.54019c0.88905,-1.48262 2.57721,-3.07801 3.76476,-3.44325c1.43811,-0.44231 4.84114,-0.17857 8.10035,0.28745c4.37398,0.62542 9.05609,1.52063 13.78782,0.66153c8.8631,-3.306 8.5067,-5.78033 11.86117,-12.35163c2.74939,-5.38596 7.95252,-21.93816 12.53379,-39.9118c7.66925,-30.08861 15.57988,-65.55473 15.94601,-68.50471z" data-paper-data="{&quot;index&quot;:null}" fill="#a780c1" stroke-width="0.5"/><path d="M247.58045,185.75838c0.15928,-2.176 11.42947,-7.0437 21.18151,-12.39443c9.46017,-5.1906 17.60468,-9.65722 17.60468,-9.65722c0,0 0.40173,7.73957 -2.66278,13.54976c-0.70833,1.34297 -4.3446,5.94294 -10.06002,7.8726c-10.58079,3.57234 -26.18211,2.25124 -26.06339,0.62929z" fill="#a780c1" stroke-width="0.5"/><path d="M213.76462,184.86834c-5.71542,-1.92967 -9.35168,-6.52963 -10.06002,-7.8726c-3.06451,-5.81018 -1.99323,-14.7932 -1.99323,-14.7932c0,0 7.47496,5.71007 16.93514,10.90066c9.75204,5.35073 16.71799,9.93149 16.87727,12.10749c0.11872,1.62195 -11.17836,3.23 -21.75915,-0.34234z" data-paper-data="{&quot;index&quot;:null}" fill="#a780c1" stroke-width="0.5"/></g></g></svg>